<?xml version="1.0" standalone="no"?><!-- Generator: Gravit.io --><svg xmlns="http://www.w3.org/2000/svg" xmlns:xlink="http://www.w3.org/1999/xlink" style="isolation:isolate" viewBox="1035.557 1284.652 50 50.6" width="50" height="50.6"><g id="Codepen Icon"><path d=" M 1060.557 1284.652 L 1059.474 1285.373 L 1036.397 1300.817 L 1035.557 1301.357 L 1035.557 1318.546 L 1036.399 1319.086 L 1059.476 1334.531 L 1060.557 1335.252 L 1061.64 1334.531 L 1084.717 1319.086 L 1085.557 1318.546 L 1085.557 1301.356 L 1084.715 1300.815 L 1061.638 1285.371 L 1060.557 1284.652 Z  M 1058.634 1290.54 L 1058.634 1300.998 L 1048.718 1307.669 L 1040.967 1302.438 L 1058.634 1290.54 Z  M 1062.48 1290.54 L 1080.149 1302.44 L 1072.395 1307.669 L 1062.48 1300.994 L 1062.48 1290.54 Z  M 1060.557 1304.363 L 1068.911 1309.952 L 1060.557 1315.54 L 1052.203 1309.952 L 1060.557 1304.363 Z  M 1039.403 1305.986 L 1045.293 1309.952 L 1039.403 1313.919 L 1039.403 1305.986 Z  M 1081.711 1305.986 L 1081.711 1313.917 L 1075.82 1309.952 L 1081.711 1305.986 Z  M 1048.778 1312.236 L 1058.634 1318.904 L 1058.634 1329.361 L 1040.965 1317.461 L 1048.778 1312.236 Z  M 1072.336 1312.236 L 1080.149 1317.463 L 1062.48 1329.363 L 1062.48 1318.906 L 1072.336 1312.236 Z " fill="rgb(255,255,255)"/></g></svg>