<?xml version="1.0" standalone="no"?><!-- Generator: Gravit.io --><svg xmlns="http://www.w3.org/2000/svg" xmlns:xlink="http://www.w3.org/1999/xlink" style="isolation:isolate" viewBox="753.914 1262.829 50 72.423" width="50" height="72.423"><g id="Github SVG"><g id="Github Icon"><path d=" M 762.879 1279.829 Q 766.185 1280.021 768.365 1281.339 Q 770.386 1282.3 772.194 1283.474 Q 776.501 1282.221 782.209 1282.37 Q 786.249 1282.563 789.573 1283.474 Q 791.293 1282.248 793.31 1281.32 Q 794.499 1280.687 795.924 1280.289 Q 797.25 1279.774 799.182 1279.866 Q 799.541 1279.912 799.79 1280.068 Q 800.962 1282.578 800.968 1286.254 Q 800.885 1288.214 800.342 1289.715 Q 803.877 1293.212 803.877 1300.245 Q 803.609 1308.335 799.367 1312.451 Q 795.387 1316.276 788.413 1317.108 Q 790.124 1319.264 790.18 1323.073 L 790.18 1327.786 C 790.067 1327.864 790.112 1328.046 790.143 1328.154 L 790.143 1328.154 L 790.143 1329.148 L 790.143 1333.124 Q 790.243 1333.596 790.567 1333.842 Q 791.045 1334.156 791.984 1334.008 Q 791.977 1334.623 792.095 1335.113 Q 791.69 1335.242 791.119 1335.205 Q 790.508 1335.006 789.573 1335.131 L 785.817 1335.131 L 770.795 1335.131 C 770.649 1335.307 770.358 1335.252 770.169 1335.205 L 770.169 1335.205 L 769.985 1335.168 L 769.599 1335.113 L 769.672 1334.229 C 769.587 1333.872 769.934 1334.029 770.159 1334.042 C 770.519 1334.061 770.926 1334.014 771.192 1333.746 C 771.524 1333.411 771.561 1332.905 771.513 1332.462 L 771.513 1332.462 L 771.513 1330.694 C 771.437 1330.652 771.458 1330.541 771.476 1330.473 L 771.476 1330.473 L 771.476 1329.884 L 771.458 1327.583 Q 769.778 1327.946 767.629 1327.841 Q 763.315 1327.46 761.167 1324.914 Q 759.959 1323.563 759.326 1321.637 Q 758.415 1319.492 756.804 1318.047 Q 755.511 1317.297 754.466 1316.298 Q 754.044 1315.929 753.914 1315.267 Q 753.955 1314.922 754.19 1314.77 Q 754.916 1314.282 756.104 1314.255 L 756.215 1314.291 Q 756.298 1314.172 756.583 1314.255 Q 759.836 1314.757 761.462 1316.887 Q 762.149 1317.672 762.677 1318.618 Q 763.249 1319.554 764.057 1320.256 Q 765.461 1321.651 768.144 1321.766 Q 770.248 1321.697 771.66 1320.937 Q 772.019 1318.645 773.17 1317.145 Q 765.706 1316.214 761.682 1311.843 Q 757.529 1307.27 757.78 1298.294 Q 758.355 1292.775 761.277 1289.604 Q 760.558 1287.692 760.688 1284.928 Q 760.898 1282.156 761.885 1280.16 Q 762.272 1279.884 762.879 1279.829 Z " fill="rgb(255,255,255)"/><path d=" M 798.336 1279.829 L 798.87 1279.847 L 798.336 1279.866 L 798.336 1279.829 Z  M 780.294 1282.333 L 781.381 1282.351 L 780.294 1282.37 L 780.294 1282.333 Z  M 779.116 1282.37 L 779.429 1282.388 L 779.116 1282.406 L 779.116 1282.37 Z  M 782.246 1282.37 L 782.559 1282.388 L 782.246 1282.406 L 782.246 1282.37 Z  M 760.67 1285.536 L 760.688 1286.107 L 760.652 1286.107 L 760.67 1285.536 Z  M 757.761 1298.901 L 757.78 1300.024 L 757.743 1300.024 L 757.761 1298.901 Z " fill-rule="evenodd" fill="rgb(65,65,65)"/><path d=" M 803.895 1299.159 L 803.914 1299.582 L 803.877 1299.582 L 803.895 1299.159 Z " fill="rgb(64,64,64)"/><path d=" M 803.895 1299.601 L 803.914 1299.987 L 803.877 1299.987 L 803.895 1299.601 Z " fill="rgb(64,64,64)"/><path d=" M 803.858 1300.264 L 803.877 1300.576 L 803.84 1300.576 L 803.858 1300.264 Z  M 799.735 1312.046 L 799.551 1312.266 L 799.735 1312.046 Z  M 761.922 1312.082 L 762.364 1312.561 L 761.922 1312.082 Z " fill-rule="evenodd" fill="rgb(65,65,65)"/><line x1="799.661" y1="1312.156" x2="799.293" y2="1312.561"/><path d=" M 799.33 1312.451 L 799.146 1312.671 L 799.33 1312.451 Z  M 760.817 1316.206 L 761.222 1316.648 L 760.817 1316.206 Z " fill-rule="evenodd" fill="rgb(65,65,65)"/><path d=" M 754.448 1316.28 L 754.668 1316.537 L 754.448 1316.28 Z  M 757.025 1318.268 L 757.283 1318.562 L 757.025 1318.268 Z " fill-rule="evenodd" fill="rgb(64,64,64)"/><path d=" M 763.689 1319.851 L 763.836 1320.035 L 763.689 1319.851 Z  M 790.199 1323.054 L 790.217 1324.914 L 790.18 1324.914 L 790.199 1323.054 Z " fill-rule="evenodd" fill="rgb(64,64,64)"/><path d=" M 761.149 1324.895 L 761.333 1325.116 L 761.149 1324.895 Z  M 790.199 1325.006 L 790.217 1326.313 L 790.18 1326.313 L 790.199 1325.006 Z " fill-rule="evenodd" fill="rgb(64,64,64)"/><line x1="761.37" y1="1325.116" x2="761.701" y2="1325.484"/><path d=" M 771.458 1327.583 L 771.476 1328.117 L 771.439 1328.117 L 771.458 1327.583 Z " fill="rgb(65,65,65)"/><path d=" M 790.162 1327.804 L 790.18 1329.295 L 790.143 1329.295 L 790.162 1327.804 Z  M 768.181 1327.841 L 768.973 1327.859 L 768.181 1327.878 L 768.181 1327.841 Z " fill-rule="evenodd" fill="rgb(65,65,65)"/><path d=" M 771.458 1328.135 L 771.476 1328.559 L 771.439 1328.559 L 771.458 1328.135 Z " fill="rgb(64,64,64)"/><path d=" M 771.458 1328.577 L 771.476 1329.111 L 771.439 1329.111 L 771.458 1328.577 Z " fill="rgb(64,64,64)"/><path d=" M 771.458 1329.129 L 771.476 1329.663 L 771.439 1329.663 L 771.458 1329.129 Z " fill="rgb(64,64,64)"/><path d=" M 790.162 1329.314 L 790.18 1329.921 L 790.143 1329.921 L 790.162 1329.314 Z " fill="rgb(65,65,65)"/><path d=" M 790.162 1329.94 L 790.18 1330.4 L 790.143 1330.4 L 790.162 1329.94 Z " fill="rgb(64,64,64)"/><path d=" M 771.495 1330.676 L 771.513 1331.836 L 771.476 1331.836 L 771.495 1330.676 Z " fill="rgb(65,65,65)"/><path d=" M 790.162 1330.713 L 790.18 1331.026 L 790.143 1331.026 L 790.162 1330.713 Z " fill="rgb(64,64,64)"/><path d=" M 790.162 1331.044 L 790.18 1331.615 L 790.143 1331.615 L 790.162 1331.044 Z " fill="rgb(64,64,64)"/><path d=" M 790.162 1331.633 L 790.18 1332.94 L 790.143 1332.94 L 790.162 1331.633 Z " fill="rgb(64,64,64)"/><path d=" M 771.495 1331.854 L 771.513 1332.793 L 771.476 1332.793 L 771.495 1331.854 Z  M 769.727 1333.953 L 770.703 1333.971 L 769.727 1333.99 L 769.727 1333.953 Z " fill-rule="evenodd" fill="rgb(65,65,65)"/><path d=" M 790.898 1333.953 L 791.984 1333.971 L 790.898 1333.99 L 790.898 1333.953 Z " fill="rgb(65,65,65)"/><path d=" M 770.906 1335.131 L 790.733 1335.149 L 770.906 1335.168 L 770.906 1335.131 Z " fill="rgb(64,64,64)"/></g></g></svg>