<?xml version="1.0" standalone="no"?><!-- Generator: Gravit.io --><svg xmlns="http://www.w3.org/2000/svg" xmlns:xlink="http://www.w3.org/1999/xlink" style="isolation:isolate" viewBox="950.009 1286.209 50 49.043" width="50" height="49.043"><g id="Linked In Icon"><path d=" M 950.381 1302.163 L 960.478 1302.037 L 960.478 1335.099 L 950.381 1335.227 L 950.381 1302.163 L 950.381 1302.163 Z " fill="rgb(255,255,255)"/><path d=" M 968.931 1302.163 L 978.578 1302.041 L 978.578 1306.246 L 978.581 1307.437 C 981.438 1304.636 984.383 1302.519 989.088 1302.519 C 994.64 1302.519 1000.009 1304.845 1000.009 1312.425 L 1000.009 1335.106 L 990.216 1335.252 L 990.216 1317.925 C 990.216 1314.105 989.259 1311.642 984.697 1311.642 C 980.678 1311.642 978.995 1312.362 978.995 1317.651 L 978.995 1335.105 L 968.932 1335.226 L 968.932 1302.163 L 968.931 1302.163 Z " fill="rgb(255,255,255)"/><path d=" M 961.063 1291.736 C 961.063 1294.788 958.588 1297.263 955.536 1297.263 C 952.484 1297.263 950.009 1294.788 950.009 1291.736 C 950.009 1288.683 952.484 1286.209 955.536 1286.209 C 958.588 1286.209 961.063 1288.683 961.063 1291.736 L 961.063 1291.736 Z " fill="rgb(255,255,255)"/></g></svg>