<?xml version="1.0" standalone="no"?><!-- Generator: Gravit.io --><svg xmlns="http://www.w3.org/2000/svg" xmlns:xlink="http://www.w3.org/1999/xlink" style="isolation:isolate" viewBox="1206.134 1293.823 50 41.429" width="50" height="41.429"><g id="medium-icon"><path d=" M 1252.384 1330.966 L 1256.134 1334.537 L 1256.134 1334.716 L 1237.027 1334.716 L 1237.027 1334.537 L 1240.955 1330.966 C 1241.312 1330.609 1241.491 1330.073 1241.491 1329.537 L 1241.491 1306.145 C 1241.491 1305.073 1241.491 1303.823 1241.669 1302.752 L 1228.812 1335.252 L 1228.634 1335.252 L 1215.062 1305.252 C 1214.705 1304.537 1214.527 1304.537 1214.348 1304.002 L 1214.348 1323.645 C 1214.169 1324.895 1214.348 1326.323 1215.062 1327.395 L 1220.419 1334.537 L 1220.419 1334.716 L 1206.134 1334.716 L 1206.134 1334.537 L 1211.491 1327.395 C 1212.027 1326.145 1212.205 1324.895 1212.205 1323.645 L 1212.205 1301.859 C 1212.205 1300.787 1212.027 1299.716 1211.312 1298.823 L 1207.384 1294.002 L 1207.384 1293.823 L 1221.134 1293.823 L 1232.562 1319.18 L 1242.741 1293.823 L 1256.134 1293.823 L 1256.134 1294.002 L 1252.384 1298.287 C 1251.848 1298.645 1251.669 1299.18 1251.848 1299.716 L 1251.848 1329.537 C 1251.669 1330.073 1251.848 1330.609 1252.384 1330.966 Z " fill="rgb(255,255,255)"/></g></svg>