<?xml version="1.0" standalone="no"?><!-- Generator: Gravit.io --><svg xmlns="http://www.w3.org/2000/svg" xmlns:xlink="http://www.w3.org/1999/xlink" style="isolation:isolate" viewBox="839.461 1302.68 75 32.572" width="75" height="32.572"><g id="Soundcloud Icon"><path d=" M 840.311 1322.16 C 840.154 1322.16 840.03 1322.281 840.01 1322.454 L 839.461 1326.62 L 840.01 1330.714 C 840.03 1330.887 840.154 1331.007 840.311 1331.007 C 840.462 1331.007 840.586 1330.887 840.61 1330.715 L 840.61 1330.715 L 840.61 1330.715 L 841.26 1326.62 L 840.61 1322.453 C 840.587 1322.281 840.462 1322.16 840.311 1322.16 Z  M 843.395 1319.884 C 843.369 1319.705 843.241 1319.582 843.083 1319.582 C 842.924 1319.582 842.793 1319.709 842.771 1319.884 C 842.771 1319.886 842.034 1326.62 842.034 1326.62 L 842.771 1333.206 C 842.792 1333.383 842.923 1333.51 843.083 1333.51 C 843.24 1333.51 843.369 1333.386 843.394 1333.208 L 844.233 1326.62 L 843.395 1319.884 L 843.395 1319.884 Z  M 855.013 1313.671 C 854.711 1313.671 854.461 1313.919 854.446 1314.233 L 853.859 1326.625 L 854.446 1334.634 C 854.461 1334.947 854.711 1335.194 855.013 1335.194 C 855.314 1335.194 855.563 1334.946 855.581 1334.632 L 855.581 1334.635 L 856.245 1326.625 L 855.581 1314.233 C 855.563 1313.919 855.314 1313.671 855.013 1313.671 L 855.013 1313.671 Z  M 849 1317.978 C 848.768 1317.978 848.578 1318.164 848.56 1318.411 L 847.898 1326.622 L 848.56 1334.566 C 848.577 1334.812 848.768 1334.998 849 1334.998 C 849.23 1334.998 849.419 1334.812 849.44 1334.566 L 850.191 1326.622 L 849.44 1318.409 C 849.419 1318.164 849.23 1317.978 849 1317.978 Z  M 861.124 1335.193 C 861.499 1335.193 861.804 1334.89 861.819 1334.503 L 862.395 1326.629 L 861.82 1310.131 C 861.805 1309.744 861.5 1309.441 861.125 1309.441 C 860.746 1309.441 860.441 1309.744 860.429 1310.132 L 859.918 1326.629 L 860.429 1334.506 C 860.441 1334.89 860.746 1335.193 861.124 1335.193 L 861.124 1335.193 Z  M 873.634 1335.23 C 874.15 1335.23 874.576 1334.805 874.586 1334.282 L 874.586 1334.288 L 874.586 1334.282 L 874.987 1326.634 L 874.586 1307.58 C 874.577 1307.058 874.15 1306.632 873.634 1306.632 C 873.117 1306.632 872.69 1307.057 872.682 1307.58 L 872.323 1326.628 C 872.323 1326.64 872.682 1334.287 872.682 1334.287 C 872.69 1334.805 873.118 1335.23 873.634 1335.23 L 873.634 1335.23 Z  M 867.331 1335.2 C 867.781 1335.2 868.143 1334.84 868.155 1334.38 L 868.155 1334.385 L 868.644 1326.631 L 868.154 1310.013 C 868.142 1309.553 867.78 1309.194 867.33 1309.194 C 866.878 1309.194 866.516 1309.553 866.506 1310.013 L 866.071 1326.632 L 866.507 1334.385 C 866.517 1334.84 866.879 1335.2 867.331 1335.2 L 867.331 1335.2 Z  M 851.995 1335.128 C 852.262 1335.128 852.478 1334.914 852.498 1334.632 L 853.206 1326.622 L 852.498 1319.002 C 852.479 1318.721 852.263 1318.509 851.995 1318.509 C 851.724 1318.509 851.508 1318.722 851.491 1319.006 L 850.867 1326.622 L 851.491 1334.632 C 851.509 1334.914 851.724 1335.128 851.995 1335.128 Z  M 846.029 1334.689 C 846.225 1334.689 846.383 1334.535 846.405 1334.322 L 847.201 1326.621 L 846.406 1318.629 C 846.383 1318.415 846.225 1318.261 846.029 1318.261 C 845.832 1318.261 845.674 1318.416 845.654 1318.629 L 844.953 1326.621 L 845.654 1334.32 C 845.673 1334.534 845.831 1334.689 846.029 1334.689 L 846.029 1334.689 Z  M 870.471 1309.736 C 869.983 1309.736 869.591 1310.124 869.582 1310.621 L 869.185 1326.633 L 869.582 1334.337 C 869.591 1334.827 869.982 1335.215 870.471 1335.215 C 870.958 1335.215 871.346 1334.828 871.358 1334.331 L 871.358 1334.338 L 871.803 1326.633 L 871.358 1310.62 C 871.346 1310.124 870.958 1309.736 870.471 1309.736 L 870.471 1309.736 Z  M 858.057 1335.209 C 858.394 1335.209 858.673 1334.934 858.689 1334.583 L 859.308 1326.628 L 858.689 1311.401 C 858.672 1311.049 858.394 1310.775 858.057 1310.775 C 857.717 1310.775 857.439 1311.05 857.425 1311.401 L 856.876 1326.628 L 857.426 1334.586 C 857.439 1334.934 857.717 1335.209 858.057 1335.209 Z  M 864.974 1334.458 L 864.974 1334.454 L 865.507 1326.63 L 864.974 1309.576 C 864.961 1309.152 864.628 1308.82 864.215 1308.82 C 863.801 1308.82 863.467 1309.152 863.456 1309.576 L 862.983 1326.629 L 863.456 1334.457 C 863.468 1334.877 863.802 1335.208 864.215 1335.208 C 864.628 1335.208 864.961 1334.877 864.975 1334.455 L 864.975 1334.458 L 864.974 1334.458 Z  M 905.237 1316.8 C 903.973 1316.8 902.768 1317.055 901.669 1317.516 C 900.935 1309.202 893.963 1302.68 885.458 1302.68 C 883.377 1302.68 881.349 1303.089 879.557 1303.782 C 878.861 1304.052 878.676 1304.329 878.669 1304.867 L 878.669 1334.146 C 878.677 1334.71 879.115 1335.181 879.666 1335.236 C 879.689 1335.239 905.072 1335.252 905.237 1335.252 C 910.331 1335.252 914.461 1331.121 914.461 1326.026 C 914.461 1320.931 910.332 1316.8 905.237 1316.8 L 905.237 1316.8 Z  M 876.784 1304.841 C 876.229 1304.841 875.775 1305.296 875.766 1305.855 L 875.35 1326.637 L 875.767 1334.179 C 875.775 1334.73 876.229 1335.184 876.784 1335.184 C 877.336 1335.184 877.791 1334.73 877.799 1334.171 L 877.799 1334.18 L 878.251 1326.637 L 877.799 1305.853 C 877.791 1305.296 877.336 1304.841 876.784 1304.841 L 876.784 1304.841 Z " fill-rule="evenodd" fill="rgb(255,255,255)"/></g></svg>