<?xml version="1.0" standalone="no"?><!-- Generator: Gravit.io --><svg xmlns="http://www.w3.org/2000/svg" xmlns:xlink="http://www.w3.org/1999/xlink" style="isolation:isolate" viewBox="1121.105 1294.637 50 40.614" width="50" height="40.614"><g id="Twitter Icon"><path d=" M 1171.105 1299.443 C 1169.264 1300.258 1167.29 1300.811 1165.215 1301.058 C 1167.334 1299.789 1168.955 1297.777 1169.724 1295.387 C 1167.737 1296.562 1165.543 1297.415 1163.206 1297.877 C 1161.335 1295.881 1158.673 1294.637 1155.72 1294.637 C 1150.055 1294.637 1145.462 1299.23 1145.462 1304.892 C 1145.462 1305.695 1145.553 1306.479 1145.728 1307.229 C 1137.205 1306.801 1129.647 1302.717 1124.588 1296.512 C 1123.704 1298.024 1123.201 1299.786 1123.201 1301.667 C 1123.201 1305.226 1125.013 1308.366 1127.763 1310.203 C 1126.082 1310.147 1124.501 1309.684 1123.117 1308.916 L 1123.117 1309.044 C 1123.117 1314.012 1126.654 1318.158 1131.343 1319.102 C 1130.484 1319.333 1129.578 1319.461 1128.641 1319.461 C 1127.978 1319.461 1127.338 1319.395 1126.71 1319.27 C 1128.016 1323.348 1131.803 1326.313 1136.289 1326.394 C 1132.781 1329.143 1128.356 1330.778 1123.551 1330.778 C 1122.723 1330.778 1121.908 1330.728 1121.105 1330.637 C 1125.644 1333.552 1131.034 1335.252 1136.827 1335.252 C 1155.695 1335.252 1166.009 1319.623 1166.009 1306.07 L 1165.974 1304.742 C 1167.99 1303.304 1169.733 1301.499 1171.105 1299.443 Z " fill="rgb(255,255,255)"/></g></svg>